<svg width="20" height="25" viewBox="0 0 20 25" fill="none" xmlns="http://www.w3.org/2000/svg">
<path d="M9.56651 3.66639C11.1582 3.66639 12.6846 4.28443 13.8101 5.38455C14.9356 6.48466 15.5678 7.97674 15.5678 9.53254C15.5678 11.939 16.0625 13.741 16.7039 15.0661C17.5235 16.7593 17.9332 17.6058 17.9104 17.7992C17.8839 18.0249 17.85 18.087 17.6813 18.2187C17.5367 18.3318 16.8175 18.3318 15.3791 18.3318H3.75386C2.31546 18.3318 1.59627 18.3318 1.4517 18.2187C1.28305 18.087 1.24916 18.0249 1.22258 17.7992C1.19979 17.6058 1.60955 16.7593 2.4291 15.0661C3.07054 13.741 3.56519 11.939 3.56519 9.53254C3.56519 7.97674 4.19747 6.48466 5.32293 5.38455C6.4484 4.28443 7.97483 3.66639 9.56651 3.66639ZM9.56651 3.66639V1.22217M6.62586 21.9981C7.41071 22.7598 8.44171 23.2222 9.57095 23.2222C10.7001 23.2222 11.7311 22.7598 12.516 21.9981" stroke="white" stroke-width="2.44423" stroke-linecap="round" stroke-linejoin="round"/>
</svg>
