<svg width="26" height="26" viewBox="0 0 26 26" fill="none" xmlns="http://www.w3.org/2000/svg">
<path d="M18.4339 16.3766C18.1149 16.706 17.7819 17.0155 17.4325 17.3059L17.4117 17.3224L17.403 17.3267L15.8214 12.4001H20.9831C20.5808 13.6155 19.9695 14.6644 19.1857 15.5565L19.1944 15.5461C17.9198 14.0385 17.9154 13.5487 17.9154 13.5487H16.5914C16.5914 13.5487 16.6452 14.283 18.4331 16.3766H18.4339ZM25.4589 24.2965C25.4503 24.9398 24.9266 25.4582 24.2815 25.4582C24.2771 25.4582 24.2737 25.4582 24.2693 25.4582H14.6535L18.6073 21.0925H18.6126L17.8105 18.5984L17.8174 18.5932C17.8174 18.5932 18.4331 18.0644 19.2013 17.2495C19.973 18.0844 20.9675 19.09 22.2543 20.288L23.0892 19.4515C21.7106 18.2014 20.7013 17.2088 19.9582 16.413C20.9918 15.319 21.7626 13.9657 22.1641 12.4617L22.1788 12.3975L24.3846 12.3992V11.3806H19.4744V9.7344H17.8807V11.3806H15.4928L13.6815 5.73626L13.6876 5.75967H24.2702C24.2737 5.75967 24.2789 5.75967 24.2832 5.75967C24.9274 5.75967 25.4511 6.27807 25.4589 6.92045V24.2965ZM7.30247 14.6228C7.29987 14.6228 7.29727 14.6228 7.2938 14.6228C5.04982 14.6228 3.23071 12.8041 3.23071 10.5605C3.23071 8.31702 5.04982 6.49827 7.2938 6.49827C7.29641 6.49827 7.29987 6.49827 7.30247 6.49827H7.30161C7.31288 6.49827 7.32589 6.49827 7.33889 6.49827C8.37764 6.49827 9.32188 6.90051 10.0251 7.55762L10.0225 7.55588L8.94991 8.58749C8.52765 8.19565 7.95885 7.95465 7.33456 7.95465C7.32242 7.95465 7.31028 7.95465 7.29901 7.95465H7.30074C5.88048 7.9824 4.73941 9.14057 4.73941 10.564C4.73941 11.9875 5.87961 13.1456 7.29727 13.1734H7.29987C7.3493 13.1768 7.40652 13.1794 7.46462 13.1794C8.60135 13.1794 9.53952 12.3264 9.67218 11.2255L9.67305 11.2151L7.30247 11.2125V9.82195H11.1054C11.167 10.0708 11.2026 10.356 11.2026 10.649C11.2069 10.7175 11.2095 10.7989 11.2095 10.8796C11.2095 12.9497 9.53085 14.628 7.46028 14.628C7.40392 14.628 7.34756 14.6272 7.2912 14.6246H7.29901L7.30247 14.6228ZM24.2702 5.21959H13.5142L11.8381 0H1.73067C0.775162 0.00346759 0.00173414 0.776741 0 1.73206V19.363C0.00346829 20.3175 0.776029 21.0899 1.72981 21.0934H12.5656L14.1619 26H24.2693C24.2719 26 24.2745 26 24.278 26C25.2222 26 25.9896 25.2397 26 24.2983V6.92305C25.9887 5.97986 25.2222 5.22046 24.2771 5.22046C24.2745 5.22046 24.2719 5.22046 24.2693 5.22046L24.2702 5.21959Z" fill="white"/>
</svg>
