<svg width="9" height="9" viewBox="0 0 9 9" fill="none" xmlns="http://www.w3.org/2000/svg">
<path d="M0.000328064 0.556482C0.000328064 0.249146 0.249473 0 0.55681 0H3.29641C3.60375 0 3.85289 0.249145 3.85289 0.556482V3.29608C3.85289 3.60342 3.60375 3.85256 3.29641 3.85256H0.55681C0.249474 3.85256 0.000328064 3.60342 0.000328064 3.29608V0.556482Z" fill="#A9A9A6"/>
<path d="M4.49474 0.556482C4.49474 0.249146 4.74388 0 5.05122 0H7.79082C8.09815 0 8.3473 0.249145 8.3473 0.556482V3.29608C8.3473 3.60342 8.09815 3.85256 7.79082 3.85256H5.05122C4.74388 3.85256 4.49474 3.60342 4.49474 3.29608V0.556482Z" fill="#A9A9A6"/>
<path d="M4.49474 5.05111C4.49474 4.74377 4.74388 4.49463 5.05122 4.49463H7.79082C8.09815 4.49463 8.3473 4.74377 8.3473 5.05111V7.79071C8.3473 8.09805 8.09815 8.34719 7.79082 8.34719H5.05122C4.74388 8.34719 4.49474 8.09805 4.49474 7.79071V5.05111Z" fill="#A9A9A6"/>
<path d="M0.000221252 5.05111C0.000221252 4.74377 0.249366 4.49463 0.556703 4.49463H3.2963C3.60364 4.49463 3.85279 4.74377 3.85279 5.05111V7.79071C3.85279 8.09805 3.60364 8.34719 3.2963 8.34719H0.556703C0.249367 8.34719 0.000221252 8.09805 0.000221252 7.79071V5.05111Z" fill="#A9A9A6"/>
</svg>
