<svg width="22" height="22" viewBox="0 0 22 22" fill="none" xmlns="http://www.w3.org/2000/svg">
<path fill-rule="evenodd" clip-rule="evenodd" d="M16.0169 5.74843C16.3926 5.38786 16.9894 5.40015 17.3499 5.77586L21.7372 10.3473C22.0873 10.7122 22.0873 11.2882 21.7372 11.653L17.3499 16.2245C16.9894 16.6002 16.3926 16.6125 16.0169 16.2519C15.6412 15.8914 15.6289 15.2945 15.9894 14.9188L18.845 11.9433H10.0854C9.56473 11.9433 9.14258 11.5211 9.14258 11.0004C9.14258 10.4797 9.56473 10.0576 10.0854 10.0576H18.8455L15.9894 7.08156C15.6289 6.70585 15.6412 6.10899 16.0169 5.74843Z" fill="white"/>
<path fill-rule="evenodd" clip-rule="evenodd" d="M0 0.942864C0 0.422139 0.422142 0 0.94287 0H12.8287C13.3495 0 13.7716 0.422139 13.7716 0.942864V4.71432C13.7716 5.23505 13.3495 5.65719 12.8287 5.65719C12.308 5.65719 11.8858 5.23505 11.8858 4.71432V1.88573H1.88574V20.1144H11.8858V17.2858C11.8858 16.7651 12.308 16.343 12.8287 16.343C13.3495 16.343 13.7716 16.7651 13.7716 17.2858V21.0573C13.7716 21.578 13.3495 22.0002 12.8287 22.0002H0.94287C0.422142 22.0002 0 21.578 0 21.0573V0.942864Z" fill="white"/>
</svg>
