<svg width="22" height="22" viewBox="0 0 22 22" fill="none" xmlns="http://www.w3.org/2000/svg">
<path d="M10.9999 0.00011469C8.82436 0.00011469 6.69764 0.64525 4.88871 1.85394C3.07978 3.06263 1.66989 4.78058 0.837326 6.79056C0.00476614 8.80054 -0.213069 11.0123 0.211366 13.146C0.635801 15.2798 1.68344 17.2398 3.22181 18.7782C4.76018 20.3166 6.72018 21.3642 8.85396 21.7886C10.9877 22.2131 13.1995 21.9952 15.2094 21.1627C17.2194 20.3301 18.9374 18.9202 20.1461 17.1113C21.3548 15.3024 21.9999 13.1756 21.9999 11.0001C22.0065 9.55367 21.7265 8.1203 21.1761 6.78274C20.6256 5.44518 19.8156 4.22992 18.7928 3.20716C17.7701 2.1844 16.5548 1.37441 15.2173 0.823952C13.8797 0.273498 12.4463 -0.00650503 10.9999 0.00011469ZM10.9999 20C9.21992 20 7.47988 19.4722 5.99984 18.4832C4.51981 17.4943 3.36626 16.0887 2.68507 14.4442C2.00389 12.7997 1.82566 10.9901 2.17293 9.24425C2.52019 7.49843 3.37735 5.89479 4.63602 4.63613C5.89468 3.37746 7.49832 2.5203 9.24414 2.17304C10.99 1.82577 12.7996 2.004 14.4441 2.68518C16.0886 3.36637 17.4942 4.51992 18.4831 5.99995C19.4721 7.47999 19.9999 9.22003 19.9999 11.0001C19.9868 13.3829 19.0343 15.6645 17.3494 17.3495C15.6644 19.0345 13.3828 19.9869 10.9999 20Z" fill="white"/>
<path d="M11 9C10.7348 9 10.4804 9.10536 10.2929 9.29289C10.1054 9.48043 10 9.73478 10 9.99999V16C10 16.2652 10.1054 16.5195 10.2929 16.7071C10.4804 16.8946 10.7348 17 11 17C11.2652 17 11.5196 16.8946 11.7071 16.7071C11.8946 16.5195 12 16.2652 12 16V9.99999C12 9.73478 11.8946 9.48043 11.7071 9.29289C11.5196 9.10536 11.2652 9 11 9Z" fill="white"/>
<path d="M11 6.99999C11.5523 6.99999 12 6.55228 12 5.99999C12 5.44771 11.5523 5 11 5C10.4477 5 10 5.44771 10 5.99999C10 6.55228 10.4477 6.99999 11 6.99999Z" fill="white"/>
</svg>
