<svg width="22" height="22" viewBox="0 0 22 22" fill="none" xmlns="http://www.w3.org/2000/svg">
<path fill-rule="evenodd" clip-rule="evenodd" d="M14.7859 0V2.6576C15.2149 2.8699 15.6261 3.1174 16.0163 3.399L16.3927 3.1702L18.2152 2.0713L19.2668 3.9754L20.9484 7.0246L22 8.9298L20.1796 10.0298L19.8032 10.2553C19.8242 10.505 19.8347 10.7525 19.8347 11C19.8347 11.2475 19.8242 11.495 19.8032 11.7447L20.1796 11.9702L22 13.0702L20.9484 14.9754L19.2668 18.0246L18.2152 19.9287L16.3927 18.8298L16.0163 18.601C15.6261 18.8826 15.2149 19.1301 14.7859 19.3424V22H7.2152V19.3424C6.78614 19.1301 6.37495 18.8826 5.9848 18.601L5.60727 18.8298L3.78585 19.9287L2.73423 18.0246L1.05163 14.9754L0 13.0702L1.82141 11.9702L2.19685 11.7447C2.17686 11.495 2.16635 11.2475 2.16635 11C2.16635 10.7525 2.17686 10.505 2.19685 10.2553L1.82141 10.0298L0 8.9298L1.05163 7.0246L2.73423 3.9754L3.78585 2.0713L5.60727 3.1702L5.9848 3.399C6.37495 3.1174 6.78614 2.8699 7.2152 2.6576V0H14.7859ZM12.6826 2.2H9.31845V4.191C8.11644 4.5144 7.04379 5.1711 6.20038 6.0698L4.55564 5.0754L2.87304 8.1246L4.51989 9.119C4.36214 9.7185 4.2696 10.3477 4.2696 11C4.2696 11.6523 4.36214 12.2815 4.51989 12.881L2.87304 13.8754L4.55564 16.9246L6.20038 15.9302C7.04379 16.8289 8.11644 17.4856 9.31845 17.809V19.8H12.6826V17.809C13.8846 17.4856 14.9573 16.8289 15.8007 15.9302L17.4444 16.9246L19.128 13.8754L17.4812 12.881C17.6389 12.2815 17.7315 11.6523 17.7315 11C17.7315 10.3477 17.6389 9.7185 17.4812 9.119L19.128 8.1246L17.4444 5.0754L15.8007 6.0698C14.9573 5.1711 13.8846 4.5144 12.6826 4.191V2.2ZM11.0004 6.6C13.3238 6.6 15.2069 8.56979 15.2069 11C15.2069 13.4302 13.3238 15.4 11.0004 15.4C8.67708 15.4 6.79392 13.4302 6.79392 11C6.79392 8.56979 8.67708 6.6 11.0004 6.6ZM11.0004 8.8C9.83867 8.8 8.89717 9.78481 8.89717 11C8.89717 12.2152 9.83867 13.2 11.0004 13.2C12.1622 13.2 13.1037 12.2152 13.1037 11C13.1037 9.78481 12.1622 8.8 11.0004 8.8Z" fill="white"/>
</svg>
