<svg width="35" height="35" viewBox="0 0 35 35" fill="none" xmlns="http://www.w3.org/2000/svg">
<path d="M16.4917 0.43739C16.7466 0.158733 17.1066 2.27924e-06 17.4843 2.31225e-06C17.8619 2.34527e-06 18.222 0.158733 18.4768 0.43739L25.6495 8.28247C26.1506 8.83063 26.1126 9.68131 25.5644 10.1825C25.0162 10.6837 24.1655 10.6456 23.6643 10.0974L18.8291 4.8089L18.8291 24.656C18.8291 25.3987 18.227 26.0008 17.4843 26.0008C16.7415 26.0008 16.1394 25.3987 16.1394 24.656L16.1394 4.8089L11.3041 10.0974C10.8029 10.6456 9.95227 10.6837 9.4041 10.1825C8.85593 9.68131 8.81792 8.83063 9.31911 8.28246L16.4917 0.43739Z" fill="#666666"/>
<path d="M32.2769 22.8629C32.2769 22.1202 32.879 21.518 33.6218 21.518C34.3645 21.518 34.9666 22.1202 34.9666 22.8629L34.9666 22.9613C34.9667 25.4136 34.9667 27.3902 34.7577 28.9449C34.5407 30.5589 34.0764 31.9178 32.9971 32.9971C31.9178 34.0766 30.5588 34.5408 28.9447 34.7578C27.3901 34.9667 25.4135 34.9667 22.9612 34.9667L12.0054 34.9667C9.55306 34.9667 7.57646 34.9667 6.02179 34.7578C4.40777 34.5408 3.04891 34.0766 1.96943 32.9971C0.890128 31.9178 0.425879 30.5589 0.208907 28.9449C3.90113e-06 27.3902 2.53752e-06 25.4136 2.75191e-06 22.9613L2.76051e-06 22.8629C2.82544e-06 22.1201 0.602146 21.518 1.34487 21.518C2.0876 21.518 2.68974 22.1201 2.68974 22.8629C2.68974 25.4368 2.69261 27.2319 2.87462 28.5865C3.0516 29.9023 3.37509 30.5989 3.87144 31.0953C4.36778 31.5916 5.06442 31.9151 6.38024 32.0921C7.7348 32.2741 9.52993 32.277 12.1038 32.277L22.8628 32.277C25.4367 32.277 27.2319 32.2741 28.5863 32.0921C29.9021 31.9151 30.5989 31.5916 31.0952 31.0953C31.5914 30.5989 31.915 29.9023 32.0919 28.5865C32.274 27.2319 32.2769 25.4368 32.2769 22.8629Z" fill="#666666"/>
</svg>
