<svg width="15" height="15" viewBox="0 0 15 15" fill="none" xmlns="http://www.w3.org/2000/svg">
<path d="M7.50004 14.9999C8.98339 14.9999 10.4334 14.5601 11.6668 13.736C12.9002 12.9118 13.8614 11.7405 14.4291 10.3701C14.9968 8.99964 15.1453 7.49164 14.8559 6.03679C14.5665 4.58194 13.8522 3.24558 12.8033 2.19669C11.7544 1.1478 10.4181 0.433502 8.96321 0.144114C7.50836 -0.145274 6.00037 0.00325056 4.62993 0.570905C3.25949 1.13856 2.08816 2.09985 1.26405 3.33321C0.439944 4.56657 7.90192e-05 6.01661 7.88895e-05 7.49996C-0.00443464 8.48613 0.186476 9.46343 0.561785 10.3754C0.937095 11.2874 1.48937 12.116 2.1867 12.8133C2.88404 13.5106 3.71262 14.0629 4.6246 14.4382C5.53657 14.8135 6.51387 15.0044 7.50004 14.9999ZM7.50004 1.36363C8.71369 1.36363 9.90009 1.72352 10.9092 2.39779C11.9183 3.07206 12.7048 4.03042 13.1693 5.15169C13.6337 6.27296 13.7552 7.50677 13.5185 8.6971C13.2817 9.88743 12.6973 10.9808 11.8391 11.839C10.9809 12.6972 9.88751 13.2816 8.69718 13.5184C7.50685 13.7552 6.27303 13.6336 5.15177 13.1692C4.0305 12.7047 3.07213 11.9182 2.39787 10.9091C1.7236 9.90001 1.36371 8.71361 1.36371 7.49996C1.37266 5.87527 2.02204 4.31966 3.17089 3.17081C4.31974 2.02196 5.87534 1.37258 7.50004 1.36363Z" fill="white"/>
<path d="M7.49983 8.86328C7.68066 8.86328 7.85408 8.79145 7.98194 8.66358C8.10981 8.53572 8.18164 8.3623 8.18164 8.18147L8.18164 4.09058C8.18164 3.90975 8.10981 3.73633 7.98194 3.60846C7.85408 3.4806 7.68066 3.40877 7.49983 3.40877C7.319 3.40877 7.14558 3.4806 7.01771 3.60846C6.88985 3.73633 6.81801 3.90975 6.81801 4.09058L6.81801 8.18147C6.81801 8.3623 6.88985 8.53572 7.01771 8.66358C7.14558 8.79145 7.319 8.86328 7.49983 8.86328Z" fill="white"/>
<path d="M7.49983 10.2272C7.12327 10.2272 6.81801 10.5325 6.81801 10.909C6.81801 11.2856 7.12327 11.5908 7.49983 11.5908C7.87638 11.5908 8.18164 11.2856 8.18164 10.909C8.18164 10.5325 7.87638 10.2272 7.49983 10.2272Z" fill="white"/>
</svg>
